<svg xmlns="http://www.w3.org/2000/svg" viewBox="0 0 652.07 526.52"><defs><style>.cls-1{fill:#3f51b5;}.cls-2{fill:#ffd740;}.cls-3{fill:#757de8;}.cls-4{fill:#002984;}.cls-5{fill:#ffab00;}.cls-6{fill:#37474f;}.cls-7{fill:#67daff;}.cls-8{fill:#263238;}</style></defs><title>Asset 2</title><g id="Layer_2" data-name="Layer 2"><g id="Layer_1-2" data-name="Layer 1"><polygon class="cls-1" points="19.2 203.42 41.35 176.72 0 62.13 63.62 0 168.72 23.18 483.35 23.18 588.45 3.15 652.07 65.29 609.88 175.71 632.87 203.42 590.26 393.48 408.06 475.34 408.06 484.05 326.03 526.01 244.01 482.61 244.01 475.34 61.8 393.48 19.2 203.42"/><polygon class="cls-2" points="326.15 526.52 408.18 484.56 408.18 257.94 326.24 216 244.12 258.41 244.12 483.12 326.15 526.52"/><polygon class="cls-3" points="632.98 203.5 590.38 393.56 408.18 475.42 632.98 203.5"/><polygon class="cls-4" points="0 62.13 63.62 0 168.72 23.18 41.35 176.72 0 62.13"/><polygon class="cls-1" points="652.07 65.29 588.37 0.51 483.28 23.7 610.64 177.23 652.07 65.29"/><polygon class="cls-4" points="326.24 71.21 168.82 23.71 19.3 203.95 244.11 475.87 244.11 258.43 326.22 216.01 326.24 71.21"/><polygon class="cls-3" points="633.08 203.5 483.56 23.26 326.24 71.21 633.08 203.5"/><polygon class="cls-5" points="326.23 216 244.2 258.36 244.2 483.07 326.23 526.48 326.23 216"/><polygon class="cls-3" points="326.23 430.98 369.28 409.36 364.39 374.38 288.66 374.38 283.18 409.36 326.23 430.98"/><polygon class="cls-1" points="19.4 203.5 168.92 23.26 326.23 71.21 19.4 203.5"/><polygon class="cls-4" points="326.24 23.18 168.72 23.18 326.24 71.21 326.24 23.18"/><polygon class="cls-1" points="326.23 374.38 288.66 374.38 283.18 409.36 326.23 430.98 326.23 374.38"/><path class="cls-6" d="M526.29,229.13,367.15,230l-17.59,33.2-23.32-6.48-23.32,6.48L285.34,230l-159.14-.82L83.47,232v19.17l18.71,3.11,24.33,89.07,73,13.92,80.37-11.13,22.74-65.07,23.58-6.6,23.58,6.6,22.74,65.07,80.37,11.13,73-13.92L550.3,254.3,569,251.19V232Zm-262.4,101-64.81,6.75-53.27-7.76-17.55-82.08,143.38-.39,11,30.44Zm242.79-1-53.27,7.76-64.81-6.75-18.8-53,11-30.44,143.38.39ZM326.24,256.67v17.82"/><circle class="cls-2" cx="105.95" cy="241.46" r="2.96"/><circle class="cls-7" cx="95.57" cy="241.46" r="2.96"/><path class="cls-8" d="M326.24,256.67l-23.32,6.48L285.34,230l-159.14-.82L83.47,232v19.17l18.71,3.11,24.33,89.07,73,13.92,80.37-11.13,22.74-65.07,23.58-6.6m-62.35,55.67-64.81,6.75-53.27-7.76-17.55-82.08,143.38-.39,11,30.44Zm62.35-73.49v17.82"/></g></g></svg>